<?xml version="1.0" encoding="utf-8"?>
<!-- Generator: Adobe Illustrator 19.2.1, SVG Export Plug-In . SVG Version: 6.00 Build 0)  -->
<svg version="1.1" id="Ebene_1" xmlns="http://www.w3.org/2000/svg" xmlns:xlink="http://www.w3.org/1999/xlink" x="0px" y="0px"
	 viewBox="0 0 595.3 841.9" style="enable-background:new 0 0 595.3 841.9;" xml:space="preserve">
<style type="text/css">
	.st0{fill:#575759;}
	.st1{fill:#ee7e00;}
	.st2{fill:none;stroke:#ee7e00;stroke-width:5.9;stroke-linecap:round;stroke-linejoin:round;}
</style>
<g>
	<g>
		<path class="st0" d="M255.6,438.5h-1.9v14.1h1.8v-11.1l7.4,11.1h2v-14.1h-1.8v11.2L255.6,438.5z"/>
		<path class="st0" d="M249.3,438.5h-1.8v11.2l-7.4-11.2h-1.9v14.1h1.8v-11.1l7.4,11.1h1.9V438.5z"/>
		<path class="st0" d="M280.2,440.2c-0.6-0.7-1.2-1.2-2.1-1.5c-0.9-0.4-1.7-0.5-2.7-0.5s-1.9,0.1-2.7,0.5c-0.8,0.3-1.6,0.8-2.1,1.4
			c-0.6,0.7-1.1,1.4-1.5,2.4c-0.3,0.9-0.5,1.9-0.5,3c0,1,0.2,2,0.5,3c0.4,0.8,0.9,1.6,1.5,2.3c0.5,0.7,1.3,1.1,2,1.4
			c0.9,0.4,1.8,0.6,2.8,0.6s1.9-0.2,2.7-0.6c0.9-0.3,1.5-0.8,2.1-1.5c0.7-0.6,1.1-1.4,1.4-2.2c0.4-1,0.5-2,0.5-3
			c0-1.1-0.1-2.1-0.5-3C281.3,441.7,280.9,440.8,280.2,440.2z M273.5,440.2c0.6-0.2,1.2-0.4,1.9-0.4c0.7,0,1.3,0.2,2,0.4
			c0.5,0.3,1,0.6,1.5,1.1c0.4,0.5,0.7,1,1,1.7c0.2,0.8,0.3,1.5,0.3,2.5c0,0.8-0.1,1.6-0.3,2.4c-0.3,0.7-0.6,1.3-1,1.8
			c-0.5,0.4-1,0.8-1.5,1.1c-0.7,0.2-1.3,0.4-2,0.4c-0.7,0-1.3-0.2-1.9-0.4c-0.6-0.3-1.1-0.7-1.6-1.1c-0.4-0.5-0.8-1.1-1-1.8
			c-0.3-0.8-0.3-1.6-0.3-2.4c0-0.9,0.1-1.7,0.4-2.4c0.2-0.7,0.5-1.3,1-1.8C272.4,440.8,272.9,440.6,273.5,440.2z"/>
		<path class="st0" d="M212.6,440.2v-1.7h-10.1v14.1H213v-1.7h-8.7v-4.7h7.8v-1.7h-7.8v-4.3H212.6z"/>
		<path class="st0" d="M233.5,452.6v-14.1h-1.9v14.1H233.5z"/>
		<path class="st0" d="M341.2,438.2c-1,0-1.9,0.1-2.7,0.5c-0.9,0.3-1.5,0.8-2.1,1.4c-0.7,0.7-1.1,1.4-1.4,2.4
			c-0.4,0.9-0.5,1.9-0.5,3c0,1,0.1,2,0.5,3c0.3,0.8,0.7,1.6,1.4,2.3c0.6,0.7,1.2,1.1,2.1,1.4c0.8,0.4,1.7,0.6,2.7,0.6
			s1.9-0.2,2.7-0.6c0.8-0.3,1.5-0.8,2.2-1.5c0.6-0.6,1-1.4,1.3-2.2c0.4-1,0.5-2,0.5-3c0-1.1-0.1-2.1-0.5-3c-0.3-0.9-0.7-1.7-1.3-2.3
			c-0.7-0.7-1.4-1.2-2.2-1.5C343.1,438.3,342.2,438.2,341.2,438.2z M341.2,439.8c0.7,0,1.4,0.2,2,0.4c0.5,0.3,1,0.6,1.5,1.1
			c0.4,0.5,0.7,1,1,1.7c0.2,0.8,0.4,1.5,0.4,2.5c0,0.8-0.2,1.6-0.4,2.4c-0.3,0.7-0.6,1.3-1,1.8c-0.5,0.4-1,0.8-1.5,1.1
			c-0.6,0.2-1.3,0.4-2,0.4s-1.3-0.2-2-0.4c-0.6-0.3-1.1-0.7-1.5-1.1c-0.4-0.5-0.7-1.1-1-1.8c-0.2-0.8-0.3-1.6-0.3-2.4
			c0-0.9,0.1-1.7,0.3-2.4c0.3-0.7,0.6-1.3,1-1.8c0.5-0.5,1-0.8,1.6-1.1C339.9,440.1,340.6,439.8,341.2,439.8z"/>
		<path class="st0" d="M330.4,438.5h-1.8v14.1h1.8V438.5z"/>
		<path class="st0" d="M325,440.2v-1.7h-11.2v1.7h4.7v12.4h1.8v-12.4H325z"/>
		<path class="st0" d="M362.9,438.5h-1.8v11.2l-7.4-11.2h-2v14.1h1.8v-11.1l7.4,11.1h2V438.5z"/>
		<path class="st0" d="M297.4,438.5h-2l-4.5,12.1l-4.4-12.1h-2l5.5,14.1h1.9L297.4,438.5z"/>
		<path class="st0" d="M300.8,452.6l1.6-4.3h5.9l1.7,4.3h2.1l-5.8-14.1h-2.1l-5.3,14.1H300.8z M305.2,440.2l2.5,6.6h-4.8
			L305.2,440.2z"/>
		<path class="st0" d="M424.6,438.5h-6.2v14.1h1.8v-6h3.5c0.3,0,0.7,0,1,0.2c0.4,0.1,0.7,0.3,0.9,0.4c0.3,0.2,0.5,0.5,0.7,0.7
			c0.2,0.3,0.4,0.6,0.4,0.9l1.4,3.8h2l-1.4-3.8c-0.5-1.4-1.3-2.2-2.3-2.6c0.5-0.1,1-0.2,1.3-0.5c0.5-0.2,0.8-0.5,1-0.8
			c0.4-0.3,0.5-0.7,0.7-1c0.2-0.5,0.2-1,0.2-1.5s-0.1-1-0.3-1.6c-0.2-0.6-0.6-1-1-1.4c-0.2-0.2-0.5-0.3-0.8-0.5
			c-0.3-0.1-0.6-0.2-0.8-0.3c-0.3,0-0.6,0-1,0C425.4,438.5,424.9,438.5,424.6,438.5z M420.2,440.1h4.5c2,0,3,0.8,3,2.3
			c0,1-0.3,1.7-0.8,2c-0.5,0.3-1.3,0.5-2.5,0.5h-4.2V440.1z"/>
		<path class="st0" d="M407.8,438.2c-1,0-1.9,0.1-2.7,0.5c-0.9,0.3-1.5,0.8-2.2,1.4c-0.5,0.7-1,1.4-1.3,2.4c-0.4,0.9-0.5,1.9-0.5,3
			c0,1,0.1,2,0.5,3c0.3,0.8,0.8,1.6,1.3,2.3c0.7,0.7,1.3,1.1,2.2,1.4c0.8,0.4,1.7,0.6,2.7,0.6s1.9-0.2,2.7-0.6
			c0.9-0.3,1.6-0.8,2.2-1.5c0.5-0.6,1-1.4,1.4-2.2c0.3-1,0.5-2,0.5-3c0-1.1-0.2-2.1-0.5-3c-0.4-0.9-0.9-1.7-1.4-2.3
			c-0.6-0.7-1.3-1.2-2.2-1.5C409.7,438.3,408.7,438.2,407.8,438.2z M405.9,440.2c0.6-0.2,1.3-0.4,1.9-0.4c0.7,0,1.4,0.2,1.9,0.4
			c0.6,0.3,1.1,0.6,1.5,1.1c0.5,0.5,0.8,1,1,1.7c0.3,0.8,0.5,1.5,0.5,2.5c0,0.8-0.2,1.6-0.5,2.4c-0.2,0.7-0.5,1.3-1,1.8
			c-0.4,0.4-0.9,0.8-1.5,1.1c-0.5,0.2-1.2,0.4-1.9,0.4s-1.4-0.2-1.9-0.4c-0.7-0.3-1.2-0.7-1.6-1.1c-0.4-0.5-0.7-1.1-1-1.8
			c-0.2-0.8-0.4-1.6-0.4-2.4c0-0.9,0.2-1.7,0.5-2.4c0.2-0.7,0.5-1.3,1-1.8C404.8,440.8,405.3,440.6,405.9,440.2z"/>
		<path class="st0" d="M445.2,438.5h-2.5l-7,7v-7h-1.8v14.1h1.8v-4.9l2.2-2.1l5.1,7h2.4l-6.2-8.3L445.2,438.5z"/>
		<path class="st0" d="M382.4,438.5h-2l3.9,14.1h1.8l3.4-12.2l3.4,12.2h1.8l3.9-14.1h-1.9l-2.9,11.6l-3.2-11.6h-2.2l-3.2,11.6
			L382.4,438.5z"/>
		<path class="st0" d="M455.4,438.6c-0.7-0.2-1.4-0.3-2.2-0.3s-1.5,0.1-2,0.3c-0.7,0.1-1.2,0.5-1.6,0.8c-0.5,0.3-0.8,0.7-1,1.2
			c-0.3,0.5-0.4,1-0.4,1.6c0,0.5,0.1,1,0.2,1.4c0.2,0.4,0.5,0.8,0.8,1c0.4,0.3,0.9,0.6,1.5,0.8c0.5,0.3,1.2,0.5,2,0.7
			c0.9,0.1,1.5,0.3,2.1,0.5c0.6,0.1,1,0.3,1.4,0.5c0.3,0.2,0.5,0.5,0.7,0.7c0.2,0.3,0.3,0.6,0.3,1c0,0.3-0.1,0.7-0.3,1
			c-0.2,0.3-0.5,0.5-0.7,0.8c-0.3,0.2-0.7,0.3-1.1,0.5c-0.5,0-0.9,0.1-1.5,0.1c-0.5,0-1-0.1-1.5-0.1c-0.4-0.2-0.9-0.4-1.3-0.7
			c-0.4-0.2-0.6-0.5-0.9-0.9c-0.2-0.4-0.3-0.9-0.4-1.4h-1.8c0,0.7,0.2,1.3,0.4,2c0.3,0.5,0.6,1,1.1,1.5c0.5,0.4,1.2,0.7,1.9,1
			c0.8,0.2,1.6,0.3,2.6,0.3c0.7,0,1.5-0.1,2.1-0.3c0.6-0.3,1.3-0.5,1.7-0.9c0.4-0.4,0.8-0.8,1.1-1.4c0.2-0.5,0.3-1,0.3-1.7
			c0-0.4,0-0.9-0.2-1.3c-0.1-0.3-0.3-0.7-0.5-0.9c-0.3-0.3-0.6-0.5-0.9-0.8c-0.4-0.2-0.7-0.4-1.1-0.5c-0.3-0.2-0.8-0.2-1.3-0.4
			c-0.5-0.1-1-0.3-1.7-0.4c-0.6-0.2-1.1-0.2-1.5-0.4c-0.4-0.2-0.8-0.3-1-0.5c-0.3-0.1-0.4-0.3-0.5-0.5c-0.1-0.3-0.2-0.5-0.2-0.8
			c0-0.6,0.3-1.2,0.9-1.5c0.5-0.5,1.3-0.7,2.4-0.7c2.1,0,3.3,0.9,3.5,2.7h1.8c0-0.7-0.2-1.3-0.4-1.9c-0.3-0.5-0.7-1-1.1-1.3
			C456.6,439.1,456,438.7,455.4,438.6z"/>
		<path class="st0" d="M168,438.5h-1.9v5.8h-7.4v-5.8h-1.9v14.1h1.9V446h7.4v6.6h1.9V438.5z"/>
		<path class="st0" d="M174.3,446.2h7.8v-1.7h-7.8v-4.3h8.3v-1.7h-10.2v14.1H183v-1.7h-8.7V446.2z"/>
		<path class="st0" d="M196.9,439.3c-0.3-0.2-0.5-0.3-0.8-0.5c-0.3-0.1-0.6-0.2-0.9-0.3c-0.3,0-0.6,0-0.9,0
			c-0.4-0.1-0.8-0.1-1.2-0.1h-6.2v14.1h1.9v-6h3.4c0.4,0,0.7,0,1.1,0.2c0.3,0.1,0.6,0.3,0.8,0.4c0.3,0.2,0.5,0.5,0.8,0.7
			c0.2,0.3,0.3,0.6,0.4,0.9l1.3,3.8h2l-1.3-3.8c-0.6-1.4-1.3-2.2-2.3-2.6c0.5-0.1,1-0.2,1.3-0.5c0.4-0.2,0.8-0.5,1-0.8
			c0.3-0.3,0.5-0.7,0.7-1c0.1-0.5,0.1-1,0.1-1.5s0-1-0.2-1.6C197.6,440.2,197.3,439.8,196.9,439.3z M196.3,442.3c0,1-0.3,1.7-0.8,2
			c-0.5,0.3-1.4,0.5-2.5,0.5h-4.2v-4.8h4.4C195.3,440.1,196.3,440.8,196.3,442.3z"/>
		<path class="st0" d="M139.4,452.6h1.9l3.4-12.2l3.4,12.2h1.7l4-14.1h-2l-2.8,11.6l-3.2-11.6h-2.3l-3.2,11.6l-2.8-11.6h-1.9
			L139.4,452.6z"/>
	</g>
</g>
<path class="st0" d="M285.5,382.5c1.1,1.6,1.6,4.2,1.6,7.9V428h17.8v-38.1c0-15.1-7.8-22.7-23.3-22.7c-1.6,0-3,0.2-4.5,0.5
	c-1.5,0.1-3,0.5-4.5,1s-3,1.3-4.7,2.3c-1.7,1.1-3.5,2.5-5.5,4.2c-1.8-2.6-4.3-4.5-7.5-5.9c-3.3-1.3-7.2-2.1-11.8-2.1
	c-2.9,0-5.5,0.5-8,1.3c-2.6,0.7-5.2,2-7.6,3.6v-3.4h-17.6V428h17.6v-40.8c4.8-4.7,9.4-7,13.7-7c2.6,0,4.5,0.8,5.7,2.3
	c1.1,1.6,1.6,4.2,1.6,7.9V428h17.6v-40.8c4.8-4.7,9.5-7,13.8-7C282.5,380.2,284.4,381,285.5,382.5z"/>
<path class="st0" d="M350.9,367.2c-5.9,0-11.2,1.5-15.9,4.5v-25.6h-17.6V428H335v-1.9c2.2,1.1,4.6,1.9,7.1,2.5c2.3,0.5,5,0.8,8,0.8
	c4.4,0,8.5-0.8,12.3-2.3c0.9-0.3,1.8-0.7,2.7-1.2c2.6-1.4,5-3,7.1-5.1c2.7-2.8,4.9-6.1,6.5-10c1.5-3.8,2.4-8.2,2.4-13
	c0-4.6-0.7-8.7-2-12.5c-1.4-3.7-3.4-6.9-5.9-9.5c-2.6-2.7-5.8-4.8-9.5-6.3C359.9,368,355.7,367.2,350.9,367.2z M335,387.5
	c4.8-5.2,9.7-7.8,14.9-7.8c4,0,7.2,1.5,9.5,4.6c2.3,3,3.5,7.5,3.5,13.5c0,6.3-1.2,11.1-3.6,14.3c-2.4,3.3-5.7,4.9-9.9,4.9
	c-2.6,0-5.2-0.5-7.5-1.4c-2.4-0.8-4.7-2.1-6.9-3.9V387.5z"/>
<path class="st1" d="M446.9,381h10.6v-12.3h-10.6V354h-18v14.7h-8V381h8v29.2c0,3.2,0.3,6,0.7,8.3c0.3,2.5,1.1,4.5,2.5,6.1
	c0.3,0.4,0.8,0.9,1.3,1.3c1.2,1,2.6,1.7,4.3,2.3c2.5,0.8,5.8,1.2,10,1.2c1.5,0,3.3-0.1,5.2-0.3c1.8-0.2,3.8-0.6,6.1-1v-12
	c-1.8,0.4-3.4,0.5-4.9,0.7c-1.5,0.2-2.9,0.2-3.9,0.2c-0.6,0-1,0-1.4-0.2c-0.5-0.2-0.9-0.4-1.1-0.9c-0.3-0.5-0.5-1.1-0.6-1.9
	c-0.2-0.9-0.2-2-0.2-3.4V381z"/>
<path class="st1" d="M392.3,368.7v12.1h18v-12.1H392.3z"/>
<path class="st1" d="M410.4,382.8h-18V428h18V382.8z"/>
<path class="st0" d="M154.2,386.2c0.8-2.5,2.1-4.2,4.3-5.2c2.1-0.8,4.8-1.3,8.4-1.3c2.9,0,5.1,0.3,6.8,0.7c1.7,0.4,3,1.1,3.9,1.9
	c0.9,0.9,1.5,1.9,1.7,3.1c0.3,1.2,0.5,2.6,0.5,4.2H177c-28.5,0-42.8,7.1-42.8,21.5c0,2.8,0.6,5.2,2,7.4c1.2,2.2,3.1,4.1,5.4,5.8
	c0.8,0.6,1.7,1.1,2.6,1.6c1.6,0.8,3.4,1.6,5.4,2.2c3,0.9,6.4,1.3,10,1.3c3.9,0,7.5-0.4,10.9-1.2c2.5-0.6,4.8-1.3,7-2.3
	c0.8-0.4,1.6-0.7,2.3-1.1v3.2h17.6v-37.6c0-4.6-0.7-8.4-2-11.4c-1.4-3-3.4-5.3-6-7c-2.6-1.8-5.7-3-9.3-3.7c-3.8-0.7-8-1.1-12.5-1.1
	c-18.8,0-29.3,6.4-31.4,19H154.2z M174.6,401.6h5.2v9c-1.8,2-4.3,3.6-7.3,4.8c-3,1.1-6.2,1.6-9.5,1.6c-3.4,0-5.9-0.5-7.9-1.7
	c-1.9-1.2-2.9-2.7-2.9-4.7C152.2,404.6,159.7,401.6,174.6,401.6z"/>
<path class="st0" d="M122.9,380.8v-12.2h-19.5v12.2H122.9z"/>
<path class="st0" d="M97.6,443.1c-1.4,0.3-3.2,0.5-5.3,0.5c-1.9,0-3.7-0.1-5.5-0.2c-0.3,0-1.1,0-2.5,0v8.7c3,0.2,6.4,0.3,10.4,0.3
	c4.3,0,8.2-0.3,11.7-0.8c2.8-0.5,5.3-1.3,7.5-2.4c0.5-0.2,1-0.5,1.4-0.7c2.5-1.5,4.4-3.6,5.6-6.4c1.4-2.7,2-6.2,2-10.5v-48.8h-19.5
	v48.4c0,2.5-0.2,4.5-0.5,6.1c-0.3,1.6-1,2.8-1.8,3.8C100.3,442.1,99.2,442.7,97.6,443.1z"/>
<g>
	<g>
		<path class="st2" d="M477.3,313.1c-5.4,5.3-8.1,11.9-8.1,19.6c0,7.6,2.7,14.1,8.1,19.5c5.4,5.5,12,8.2,19.6,8.2
			c7.7,0,14.3-2.7,19.7-8.2c5.3-5.4,8.1-11.9,8.1-19.5c0-7.7-2.8-14.3-8.1-19.6c-5.4-5.4-12-8.2-19.7-8.2
			C489.3,304.9,482.7,307.7,477.3,313.1"/>
	</g>
	<g>
		<path class="st0" d="M507.4,315.3c1.6,1.6-3.3,9.2-10.9,16.8c-7.7,7.7-15.2,12.6-16.8,10.9c-1.6-1.6-0.5-13,7.1-20.6
			C494.5,314.8,505.8,313.7,507.4,315.3z"/>
		<path class="st0" d="M486.5,349.9c-1.6-1.6,3.3-9.2,10.9-16.8c7.7-7.7,15.2-12.6,16.8-10.9s0.5,13-7.1,20.6
			C499.4,350.4,488.1,351.5,486.5,349.9z"/>
	</g>
</g>
</svg>
