<svg xmlns="http://www.w3.org/2000/svg" viewBox="0 15 566.15 273.89"><defs><style>.cls-1{fill:#3c3c3c;}.cls-2{fill:#ee7f00;}</style></defs><g id="jambit"><path class="cls-1" d="M262.6,142.19c1.1,1.6,1.6,4.2,1.6,7.9v37.6H282v-38.1c0-15.1-7.8-22.7-23.3-22.7a22.15,22.15,0,0,0-4.5.5,18.21,18.21,0,0,0-4.5,1,25.25,25.25,0,0,0-4.7,2.3,54,54,0,0,0-5.5,4.2A17.11,17.11,0,0,0,232,129a31.91,31.91,0,0,0-11.8-2.1,25.79,25.79,0,0,0-8,1.3,26.38,26.38,0,0,0-7.6,3.6v-3.4H187v59.3h17.6v-40.8c4.8-4.7,9.4-7,13.7-7,2.6,0,4.5.8,5.7,2.3s1.6,4.2,1.6,7.9v37.6h17.6v-40.8c4.8-4.7,9.5-7,13.8-7C259.6,139.89,261.5,140.69,262.6,142.19Z"/><path class="cls-1" d="M328,126.89a28.92,28.92,0,0,0-15.9,4.5v-25.6H294.5v81.9h17.6v-1.9a33.16,33.16,0,0,0,7.1,2.5,38,38,0,0,0,8,.8,33.22,33.22,0,0,0,12.3-2.3,16,16,0,0,0,2.7-1.2,29.77,29.77,0,0,0,7.1-5.1,31.43,31.43,0,0,0,6.5-10,35.42,35.42,0,0,0,2.4-13,38.1,38.1,0,0,0-2-12.5,27.79,27.79,0,0,0-5.9-9.5,27.23,27.23,0,0,0-9.5-6.3A34.35,34.35,0,0,0,328,126.89Zm-15.9,20.3c4.8-5.2,9.7-7.8,14.9-7.8a11.18,11.18,0,0,1,9.5,4.6c2.3,3,3.5,7.5,3.5,13.5,0,6.3-1.2,11.1-3.6,14.3a11.53,11.53,0,0,1-9.9,4.9,20.82,20.82,0,0,1-7.5-1.4,21.77,21.77,0,0,1-6.9-3.9Z"/><path class="cls-2" d="M424,140.69h10.6v-12.3H424v-14.7H406v14.7h-8v12.3h8v29.2a48.56,48.56,0,0,0,.7,8.3,10.89,10.89,0,0,0,2.5,6.1,8,8,0,0,0,1.3,1.3,13.56,13.56,0,0,0,4.3,2.3,33.64,33.64,0,0,0,10,1.2,51.05,51.05,0,0,0,5.2-.3c1.8-.2,3.8-.6,6.1-1v-12c-1.8.4-3.4.5-4.9.7a29,29,0,0,1-3.9.2,3,3,0,0,1-1.4-.2,1.67,1.67,0,0,1-1.1-.9,4.73,4.73,0,0,1-.6-1.9,16.73,16.73,0,0,1-.2-3.4Z"/><path class="cls-2" d="M369.44,128.39v12.1h18v-12.1Z"/><path class="cls-2" d="M387.46,142.49h-18v45.2h18Z"/><path class="cls-1" d="M131.3,145.89a7.83,7.83,0,0,1,4.3-5.2,23.47,23.47,0,0,1,8.4-1.3,29.53,29.53,0,0,1,6.8.7,8.89,8.89,0,0,1,3.9,1.9,5.64,5.64,0,0,1,1.7,3.1,17.27,17.27,0,0,1,.5,4.2h-2.8c-28.5,0-42.8,7.1-42.8,21.5a13.27,13.27,0,0,0,2,7.4,18.46,18.46,0,0,0,5.4,5.8,22.61,22.61,0,0,0,2.6,1.6,33.73,33.73,0,0,0,5.4,2.2,35.09,35.09,0,0,0,10,1.3,47.28,47.28,0,0,0,10.9-1.2,38.28,38.28,0,0,0,7-2.3c.8-.4,1.6-.7,2.3-1.1v3.2h17.6v-37.6a28.76,28.76,0,0,0-2-11.4,16.45,16.45,0,0,0-6-7,24.22,24.22,0,0,0-9.3-3.7,69.23,69.23,0,0,0-12.5-1.1c-18.8,0-29.3,6.4-31.4,19Zm20.4,15.4h5.2v9a19.37,19.37,0,0,1-7.3,4.8,27.48,27.48,0,0,1-9.5,1.6c-3.4,0-5.9-.5-7.9-1.7a5.36,5.36,0,0,1-2.9-4.7C129.3,164.29,136.8,161.29,151.7,161.29Z"/><path class="cls-1" d="M100,140.49v-12.2H80.5v12.2Z"/><path class="cls-1" d="M74.7,202.79a25.76,25.76,0,0,1-5.3.5c-1.9,0-3.7-.1-5.5-.2H61.4v8.7c3,.2,6.4.3,10.4.3a82.74,82.74,0,0,0,11.7-.8,27.51,27.51,0,0,0,7.5-2.4c.5-.2,1-.5,1.4-.7a13.48,13.48,0,0,0,5.6-6.4c1.4-2.7,2-6.2,2-10.5v-48.8H80.5v48.4A33.21,33.21,0,0,1,80,197a8.42,8.42,0,0,1-1.8,3.8A6,6,0,0,1,74.7,202.79Z"/></g><g id="coffeeright"><path class="cls-2" d="M474,123a30.78,30.78,0,0,1-30.65-30.65,29.36,29.36,0,0,1,9-21.69,30.7,30.7,0,0,1,52.43,21.69A29.9,29.9,0,0,1,495.81,114,29.52,29.52,0,0,1,474,123Zm0-55.5a24,24,0,0,0-17.51,7.34l0,0a24.69,24.69,0,0,0,0,34.91,24.7,24.7,0,0,0,35.1,0,24.16,24.16,0,0,0,7.26-17.44A24.89,24.89,0,0,0,474,67.54Zm-19.6,5.25h0Z"/><path class="cls-1" d="M484.24,74.76c1.63,1.63-3.26,9.17-10.93,16.84s-15.21,12.57-16.84,10.94-.53-13,7.14-20.64S482.61,73.13,484.24,74.76Z"/><path class="cls-1" d="M463.56,109.92c-1.63-1.63,3.27-9.17,10.94-16.83s15.2-12.57,16.83-10.94.54,13-7.13,20.64S465.19,111.55,463.56,109.92Z"/></g></svg>